HIERARCHY
ROOT root
{
  OFFSET 0 98.6856 0
  CHANNELS 6 Xposition Yposition Zposition Zrotation Xrotation Yrotation
  JOINT torso_1
  {
    OFFSET 0 5.37224 -1.21793
    CHANNELS 6 Xposition Yposition Zposition Zrotation Xrotation Yrotation
    JOINT torso_2
    {
      OFFSET 0 5.94127 1.13336
      CHANNELS 6 Xposition Yposition Zposition Zrotation Xrotation Yrotation
      JOINT torso_3
      {
        OFFSET -1.08535e-17 6.33601 0.121658
        CHANNELS 6 Xposition Yposition Zposition Zrotation Xrotation Yrotation
        JOINT torso_4
        {
          OFFSET -1.16841e-17 6.88189 -0.46916
          CHANNELS 6 Xposition Yposition Zposition Zrotation Xrotation Yrotation
          JOINT torso_5
          {
            OFFSET -2.08699e-17 8.0451 -1.59297
            CHANNELS 6 Xposition Yposition Zposition Zrotation Xrotation Yrotation
            JOINT torso_6
            {
              OFFSET -2.67949e-17 10.0463 -0.967353
              CHANNELS 6 Xposition Yposition Zposition Zrotation Xrotation Yrotation
              JOINT torso_7
              {
                OFFSET -3.07187e-17 11.1612 1.66806
                CHANNELS 6 Xposition Yposition Zposition Zrotation Xrotation Yrotation
                JOINT neck_1
                {
                  OFFSET -1.36661e-17 5.06312 0.756688
                  CHANNELS 6 Xposition Yposition Zposition Zrotation Xrotation Yrotation
                  JOINT neck_2
                  {
                    OFFSET -1.91632e-17 5.09976 0.446172
                    CHANNELS 6 Xposition Yposition Zposition Zrotation Xrotation Yrotation
                    JOINT head
                    {
                      OFFSET -2.12574e-17 5.10962 0.809285
                      CHANNELS 6 Xposition Yposition Zposition Zrotation Xrotation Yrotation
                      End Site
                      {
                        OFFSET 0 0.1 0
                      }
                    }
                  }
                }
                JOINT l_shoulder
                {
                  OFFSET 1.30426 -8.04703 7.96922
                  CHANNELS 6 Xposition Yposition Zposition Zrotation Xrotation Yrotation
                  JOINT l_up_arm
                  {
                    OFFSET 13.7035 3.43734 -3.45766
                    CHANNELS 6 Xposition Yposition Zposition Zrotation Xrotation Yrotation
                    JOINT l_low_arm
                    {
                      OFFSET 30.8964 0.0632652 0.14496
                      CHANNELS 6 Xposition Yposition Zposition Zrotation Xrotation Yrotation
                      JOINT l_hand
                      {
                        OFFSET 25.6348 0.0524902 0.120274
                        CHANNELS 6 Xposition Yposition Zposition Zrotation Xrotation Yrotation
                        End Site
                        {
                          OFFSET 0.1 0 0
                        }
                      }
                    }
                  }
                }
                JOINT r_shoulder
                {
                  OFFSET -1.30426 -8.04702 7.96912
                  CHANNELS 6 Xposition Yposition Zposition Zrotation Xrotation Yrotation
                  JOINT r_up_arm
                  {
                    OFFSET -13.7035 3.43734 -3.45766
                    CHANNELS 6 Xposition Yposition Zposition Zrotation Xrotation Yrotation
                    JOINT r_low_arm
                    {
                      OFFSET -30.8964 0.0632652 0.14496
                      CHANNELS 6 Xposition Yposition Zposition Zrotation Xrotation Yrotation
                      JOINT r_hand
                      {
                        OFFSET -25.6348 0.0524901 0.120274
                        CHANNELS 6 Xposition Yposition Zposition Zrotation Xrotation Yrotation
                        End Site
                        {
                          OFFSET -0.1 0 0
                        }
                      }
                    }
                  }
                }
              }
            }
          }
        }
      }
    }
  }
  JOINT l_up_leg
  {
    OFFSET 9.77065 -4.44866 2.1502
    CHANNELS 6 Xposition Yposition Zposition Zrotation Xrotation Yrotation
    JOINT l_low_leg
    {
      OFFSET -0.901622 -41.0132 -0.693059
      CHANNELS 6 Xposition Yposition Zposition Zrotation Xrotation Yrotation
      JOINT l_foot
      {
        OFFSET -2.46068 -42.7371 -6.39839
        CHANNELS 6 Xposition Yposition Zposition Zrotation Xrotation Yrotation
        JOINT l_toes
        {
          OFFSET 0.82413 -10.4558 13.2182
          CHANNELS 6 Xposition Yposition Zposition Zrotation Xrotation Yrotation
          End Site
          {
            OFFSET 0 0 0.1
          }
        }
      }
    }
  }
  JOINT r_up_leg
  {
    OFFSET -9.77065 -4.44866 2.1502
    CHANNELS 6 Xposition Yposition Zposition Zrotation Xrotation Yrotation
    JOINT r_low_leg
    {
      OFFSET 0.901622 -41.0132 -0.693059
      CHANNELS 6 Xposition Yposition Zposition Zrotation Xrotation Yrotation
      JOINT r_foot
      {
        OFFSET 2.46068 -42.7371 -6.39839
        CHANNELS 6 Xposition Yposition Zposition Zrotation Xrotation Yrotation
        JOINT r_toes
        {
          OFFSET -0.82413 -10.4558 13.2182
          CHANNELS 6 Xposition Yposition Zposition Zrotation Xrotation Yrotation
          End Site
          {
            OFFSET 0 0 0.1
          }
        }
      }
    }
  }
}
MOTION
Frames: 6
Frame Time: 0.02
0 98.6856 0 -0 0 -0 0 5.37224 -1.21793 -0 0 -0 0 5.94127 1.13336 -0 0 -0 -1.08535e-17 6.33601 0.121658 -0 0 -0 -1.16841e-17 6.88189 -0.46916 -0 0 -0 -2.08699e-17 8.0451 -1.59297 -0 0 -0 -2.67949e-17 10.0463 -0.967353 -0 0 -0 -3.07187e-17 11.1612 1.66806 -0 0 -0 -1.36661e-17 5.06312 0.756688 -0 0 -0 -1.91632e-17 5.09976 0.446172 -0 0 -0 -2.12574e-17 5.10962 0.809285 -0 0 -0 1.30426 -8.04703 7.96922 -0 0 -0 13.7035 3.43734 -3.45766 -0 0 -0 30.8964 0.0632652 0.14496 -0 0 -0 25.6348 0.0524902 0.120274 -0 0 -0 -1.30426 -8.04702 7.96912 -0 0 -0 -13.7035 3.43734 -3.45766 -0 0 -0 -30.8964 0.0632652 0.14496 -0 0 -0 -25.6348 0.0524901 0.120274 -0 0 -0 9.77065 -4.44866 2.1502 -0 0 -0 -0.901622 -41.0132 -0.693059 -0 0 -0 -2.46068 -42.7371 -6.39839 -0 0 -0 0.82413 -10.4558 13.2182 -0 0 -0 -9.77065 -4.44866 2.1502 -0 0 -0 0.901622 -41.0132 -0.693059 -0 0 -0 2.46068 -42.7371 -6.39839 -0 0 -0 -0.82413 -10.4558 13.2182 -0 0 -0 
-1.60485 91.7569 37.163 4.19092 5.59105 2.3371 0 5.37224 -1.21793 -3.49169 0.56897 -3.11493 0 5.94127 1.13336 -2.30069 1.01821 -3.53778 -1.08535e-17 6.33601 0.121658 -1.46587 1.68118 -3.35829 -1.16841e-17 6.88189 -0.46916 -0.486369 2.59427 -3.35497 -2.08699e-17 8.0451 -1.59297 -0.307399 2.85201 -3.14591 -2.67949e-17 10.0463 -0.967353 -0.422334 3.29765 -2.98416 -3.07187e-17 11.1612 1.66806 0.00357835 0.0697631 0.0226559 -1.36661e-17 5.06312 0.756688 2.66565 -5.8242 11.6685 -1.91632e-17 5.09976 0.446172 0.748949 -6.99737 5.22037 -2.12574e-17 5.10962 0.809285 0.397502 -1.19941 -0.199058 1.30426 -8.04703 7.96922 10.6381 -0.825834 0.109731 13.7035 3.43734 -3.45766 -65.2482 32.9812 -38.8101 30.8964 0.0632652 0.14496 11.4984 -8.46323 -73.2165 25.6348 0.0524902 0.120274 -2.85063 -54.263 -5.01985 -1.30426 -8.04702 7.96912 -1.46445 4.11341 1.28797 -13.7035 3.43734 -3.45766 88.3328 13.8584 -5.23278 -30.8964 0.0632652 0.14496 -1.95507 -0.151534 9.46172 -25.6348 0.0524901 0.120274 -2.28448 -18.9342 -3.07885 9.77065 -4.44866 2.1502 -3.19148 5.48639 -23.1441 -0.901622 -41.0132 -0.693059 -4.94096 18.0034 0.465991 -2.46068 -42.7371 -6.39839 -1.42902 -11.7181 16.06 0.82413 -10.4558 13.2182 -3.47873e-16 -8.07563e-16 2.48481e-17 -9.77065 -4.44866 2.1502 7.16142 -47.5788 28.0334 0.901622 -41.0132 -0.693059 17.0599 48.5118 -6.81717 2.46068 -42.7371 -6.39839 -2.27291 -8.98703 -15.638 -0.82413 -10.4558 13.2182 -9.93923e-16 -5.46658e-16 -1.27222e-14 
-1.94202 91.6135 40.0394 3.94009 5.59455 2.88162 0 5.37224 -1.21793 -3.35459 0.15277 -3.29139 0 5.94127 1.13336 -2.15933 0.685555 -3.70002 -1.08535e-17 6.33601 0.121658 -1.35425 1.4826 -3.52529 -1.16841e-17 6.88189 -0.46916 -0.395636 2.58744 -3.52557 -2.08699e-17 8.0451 -1.59297 -0.287535 2.95466 -3.327 -2.67949e-17 10.0463 -0.967353 -0.500647 3.44944 -3.1585 -3.07187e-17 11.1612 1.66806 0.00112576 0.0658756 0.0212772 -1.36661e-17 5.06312 0.756688 2.64909 -5.55316 11.9862 -1.91632e-17 5.09976 0.446172 0.65334 -6.4241 5.3861 -2.12574e-17 5.10962 0.809285 0.696476 -0.172555 0.170346 1.30426 -8.04703 7.96922 10.5417 -0.853745 0.111965 13.7035 3.43734 -3.45766 -63.9547 33.8739 -39.825 30.8964 0.0632652 0.14496 11.5688 -8.69828 -74.3878 25.6348 0.0524902 0.120274 -3.41756 -53.5004 -5.49806 -1.30426 -8.04702 7.96912 -2.19412 3.90397 1.21646 -13.7035 3.43734 -3.45766 89.3375 15.2662 -6.90029 -30.8964 0.0632652 0.14496 -2.39412 -0.230851 11.6112 -25.6348 0.0524901 0.120274 -2.01938 -21.323 -2.96676 9.77065 -4.44866 2.1502 -2.60278 6.25565 -23.1985 -0.901622 -41.0132 -0.693059 -5.21734 18.9484 0.537045 -2.46068 -42.7371 -6.39839 -2.72946 -8.63599 15.8904 0.82413 -10.4558 13.2182 -3.47873e-16 -8.07563e-16 2.48481e-17 -9.77065 -4.44866 2.1502 7.0382 -46.6092 27.5632 0.901622 -41.0132 -0.693059 16.2119 47.0667 -6.21516 2.46068 -42.7371 -6.39839 -2.13085 -8.89561 -15.615 -0.82413 -10.4558 13.2182 -5.96354e-16 -5.59082e-16 -1.27471e-14 
-2.31407 91.5334 43.1208 3.59144 6.05391 3.4314 0 5.37224 -1.21793 -3.15756 -0.0701957 -3.37905 0 5.94127 1.13336 -1.99412 0.487516 -3.77088 -1.08535e-17 6.33601 0.121658 -1.2305 1.35018 -3.59721 -1.16841e-17 6.88189 -0.46916 -0.310573 2.51524 -3.60343 -2.08699e-17 8.0451 -1.59297 -0.25803 2.92365 -3.41473 -2.67949e-17 10.0463 -0.967353 -0.537909 3.42505 -3.23633 -3.07187e-17 11.1612 1.66806 0.000231467 0.0659919 0.0214669 -1.36661e-17 5.06312 0.756688 2.57714 -5.17167 12.1664 -1.91632e-17 5.09976 0.446172 0.49394 -5.95511 5.4881 -2.12574e-17 5.10962 0.809285 1.19188 0.235937 0.149102 1.30426 -8.04703 7.96922 10.8186 -0.734341 0.331106 13.7035 3.43734 -3.45766 -62.5176 35.9349 -40.4714 30.8964 0.0632652 0.14496 11.6602 -9.03374 -76.0486 25.6348 0.0524902 0.120274 -2.46514 -52.3437 -4.16546 -1.30426 -8.04702 7.96912 -2.53927 3.90063 1.19287 -13.7035 3.43734 -3.45766 90.3212 16.5781 -7.9995 -30.8964 0.0632652 0.14496 -2.82337 -0.32502 13.7277 -25.6348 0.0524901 0.120274 -1.50009 -23.9617 -2.14447 9.77065 -4.44866 2.1502 -1.90299 6.34002 -22.9686 -0.901622 -41.0132 -0.693059 -5.56669 20.1286 0.63323 -2.46068 -42.7371 -6.39839 -4.16775 -4.52762 15.8255 0.82413 -10.4558 13.2182 4.96962e-17 -7.95139e-16 1.2424e-17 -9.77065 -4.44866 2.1502 7.07467 -45.5813 27.0744 0.901622 -41.0132 -0.693059 15.5226 45.828 -5.73796 2.46068 -42.7371 -6.39839 -2.4365 -9.09337 -15.6133 -0.82413 -10.4558 13.2182 -5.96354e-16 -5.59082e-16 -1.27471e-14 
-2.70248 91.4664 46.4219 3.1645 6.627 4.0673 0 5.37224 -1.21793 -2.80079 -0.202379 -3.41762 0 5.94127 1.13336 -1.71005 0.307238 -3.78323 -1.08535e-17 6.33601 0.121658 -1.01804 1.16427 -3.61252 -1.16841e-17 6.88189 -0.46916 -0.175017 2.24668 -3.62675 -2.08699e-17 8.0451 -1.59297 -0.193416 2.6495 -3.44605 -2.67949e-17 10.0463 -0.967353 -0.55329 3.09884 -3.25785 -3.07187e-17 11.1612 1.66806 0.000509606 0.0705572 0.022945 -1.36661e-17 5.06312 0.756688 2.46755 -4.75376 12.0962 -1.91632e-17 5.09976 0.446172 0.227046 -5.18954 5.44278 -2.12574e-17 5.10962 0.809285 1.50474 0.630326 0.0774656 1.30426 -8.04703 7.96922 11.2474 -0.373558 0.618153 13.7035 3.43734 -3.45766 -61.4324 38.8183 -41.039 30.8964 0.0632652 0.14496 11.5941 -8.7873 -74.8297 25.6348 0.0524902 0.120274 -3.0475 -51.2572 -5.01973 -1.30426 -8.04702 7.96912 -2.41769 4.2065 1.36938 -13.7035 3.43734 -3.45766 90.5881 17.6385 -8.43519 -30.8964 0.0632652 0.14496 -3.15847 -0.410213 15.3924 -25.6348 0.0524901 0.120274 -0.77003 -26.3605 -1.0459 9.77065 -4.44866 2.1502 -1.12266 6.09344 -22.8386 -0.901622 -41.0132 -0.693059 -5.95729 21.4284 0.74904 -2.46068 -42.7371 -6.39839 -5.69252 0.893005 15.8616 0.82413 -10.4558 13.2182 4.96962e-17 -7.95139e-16 1.2424e-17 -9.77065 -4.44866 2.1502 7.09444 -44.3761 26.1143 0.901622 -41.0132 -0.693059 15.0707 44.9834 -5.43137 2.46068 -42.7371 -6.39839 -3.31295 -9.48999 -15.6032 -0.82413 -10.4558 13.2182 -5.96354e-16 -5.59082e-16 -1.27471e-14 
-3.07958 91.3424 49.9734 2.68073 7.19114 4.92446 0 5.37224 -1.21793 -2.37726 -0.298876 -3.43194 0 5.94127 1.13336 -1.37083 0.119365 -3.77309 -1.08535e-17 6.33601 0.121658 -0.758791 0.932614 -3.60823 -1.16841e-17 6.88189 -0.46916 -0.00482194 1.86533 -3.63301 -2.08699e-17 8.0451 -1.59297 -0.10044 2.24384 -3.45775 -2.67949e-17 10.0463 -0.967353 -0.546278 2.60098 -3.25862 -3.07187e-17 11.1612 1.66806 0.00131794 0.0769135 0.0246852 -1.36661e-17 5.06312 0.756688 2.38398 -4.50835 11.8746 -1.91632e-17 5.09976 0.446172 -0.0825099 -4.42551 5.30623 -2.12574e-17 5.10962 0.809285 1.65719 1.26155 -0.0505138 1.30426 -8.04703 7.96922 11.7159 0.129074 0.987258 13.7035 3.43734 -3.45766 -60.7812 42.5564 -41.5968 30.8964 0.0632652 0.14496 11.3978 -8.15413 -71.6655 25.6348 0.0524902 0.120274 -4.16304 -50.2951 -6.52317 -1.30426 -8.04702 7.96912 -2.12971 4.59397 1.5913 -13.7035 3.43734 -3.45766 90.5869 18.159 -8.58801 -30.8964 0.0632652 0.14496 -3.48457 -0.503186 17.0245 -25.6348 0.0524901 0.120274 0.168968 -27.9259 0.19568 9.77065 -4.44866 2.1502 -0.254714 6.04952 -22.904 -0.901622 -41.0132 -0.693059 -6.18167 22.1653 0.819447 -2.46068 -42.7371 -6.39839 -7.26526 7.29101 16.1232 0.82413 -10.4558 13.2182 -3.47873e-16 -8.07563e-16 2.48481e-17 -9.77065 -4.44866 2.1502 7.20675 -42.9697 25.0777 0.901622 -41.0132 -0.693059 14.8142 44.492 -5.25965 2.46068 -42.7371 -6.39839 -4.56499 -9.81314 -15.5325 -0.82413 -10.4558 13.2182 -5.96354e-16 -5.59082e-16 -1.27471e-14 
